Coordinates
version=1
nRows=49
nColumns=12
inDegrees=yes

Units are S.I. units (second, meters, Newtons, ...)
Angles are in degrees

endheader
time	SC_y	SC_z	SC_x	AC_y	AC_z	AC_x	GH_y	GH_z	GH_yy	EL_x	PS_y
       0.0              -21.83          5.106          74.98          36.87         -5.221          5.796          147.4          31.16         -143.6          75.83          137.4
   0.02207              -21.83          5.111          74.98          36.88         -5.221          5.793          147.4          31.16         -143.6          75.83          137.4
   0.04415              -21.83          5.117          74.98          36.88         -5.221           5.79          147.4          31.16         -143.5          75.83          137.4
   0.06622              -21.83          5.122          74.98          36.88          -5.22          5.786          147.3          31.16         -143.5          75.84          137.5
    0.0883              -21.83          5.129          74.98          36.88          -5.22          5.783          147.3          31.16         -143.5          75.84          137.5
    0.1104              -21.83          5.135          74.98          36.89         -5.219          5.779          147.3          31.15         -143.5          75.84          137.5
    0.1324              -21.84          5.142          74.98          36.89         -5.219          5.775          147.2          31.15         -143.5          75.84          137.5
    0.1545              -21.84           5.15          74.98          36.89         -5.218           5.77          147.2          31.15         -143.5          75.84          137.5
    0.1766              -21.84          5.158          74.99           36.9         -5.218          5.765          147.1          31.15         -143.5          75.84          137.5
    0.1987              -21.84          5.166          74.99           36.9         -5.217           5.76          147.1          31.15         -143.5          75.84          137.5
    0.2207              -21.84          5.175          74.99          36.91         -5.216          5.755          147.0          31.14         -143.4          75.84          137.5
    0.2428              -21.85          5.185          74.99          36.91         -5.216          5.749          147.0          31.14         -143.4          75.84          137.5
    0.2649              -21.85          5.196          74.99          36.92         -5.215          5.742          146.9          31.14         -143.4          75.84          137.5
     0.287              -21.85          5.207          74.99          36.92         -5.214          5.735          146.8          31.13         -143.4          75.85          137.5
     0.309              -21.86           5.22          74.99          36.93         -5.213          5.728          146.8          31.13         -143.4          75.85          137.5
    0.3311              -21.86          5.233           75.0          36.94         -5.212           5.72          146.7          31.13         -143.3          75.85          137.5
    0.3532              -21.86          5.248           75.0          36.94         -5.211          5.711          146.6          31.12         -143.3          75.85          137.5
    0.3753              -21.87          5.264           75.0          36.95          -5.21          5.701          146.5          31.12         -143.3          75.85          137.5
    0.3973              -21.87          5.281           75.0          36.96         -5.209          5.691          146.4          31.11         -143.2          75.86          137.6
    0.4194              -21.88          5.301          75.01          36.97         -5.207          5.679          146.3          31.11         -143.2          75.86          137.6
    0.4415              -21.88          5.322          75.01          36.98         -5.206          5.667          146.2           31.1         -143.2          75.86          137.6
    0.4635              -21.89          5.345          75.01          36.99         -5.204          5.653          146.0          31.09         -143.1          75.86          137.6
    0.4856               -21.9           5.37          75.02           37.0         -5.202          5.637          145.9          31.09         -143.1          75.87          137.6
    0.5077              -21.91          5.398          75.02          37.02           -5.2           5.62          145.7          31.08         -143.0          75.87          137.6
    0.5298              -21.91           5.43          75.02          37.03         -5.198          5.601          145.5          31.07         -143.0          75.88          137.6
    0.5518              -21.92          5.465          75.03          37.05         -5.195           5.58          145.3          31.06         -142.9          75.88          137.7
    0.5739              -21.94          5.504          75.03          37.07         -5.192          5.557          145.1          31.05         -142.8          75.89          137.7
     0.596              -21.95          5.548          75.04          37.09         -5.189           5.53          144.8          31.04         -142.8          75.89          137.7
    0.6181              -21.96          5.598          75.05          37.12         -5.185            5.5          144.6          31.02         -142.7           75.9          137.8
    0.6401              -21.98          5.655          75.06          37.15         -5.181          5.466          144.2          31.01         -142.6          75.91          137.8
    0.6622               -22.0           5.72          75.06          37.18         -5.176          5.427          143.9          30.99         -142.5          75.91          137.8
    0.6843              -22.02          5.794          75.07          37.21         -5.171          5.382          143.4          30.97         -142.3          75.92          137.9
    0.7064              -22.04           5.88          75.09          37.26         -5.164           5.33          142.9          30.94         -142.2          75.94          137.9
    0.7284              -22.07           5.98           75.1          37.31         -5.157           5.27          142.3          30.92         -142.0          75.95          138.0
    0.7505               -22.1          6.096          75.12          37.36         -5.148            5.2          141.7          30.88         -141.8          75.96          138.1
    0.7726              -22.14          6.234          75.14          37.43         -5.138          5.117          140.9          30.84         -141.5          75.98          138.2
    0.7947              -22.18          6.397          75.16          37.51         -5.126          5.019          139.9           30.8         -141.2          76.01          138.3
    0.8167              -22.24          6.593          75.19          37.61         -5.112          4.901          138.8          30.74         -140.9          76.03          138.4
    0.8388               -22.3           6.83          75.22          37.73         -5.094          4.759          137.4          30.68         -140.4          76.06          138.5
    0.8609              -22.38          7.119          75.26          37.87         -5.073          4.584          135.7          30.59         -139.9           76.1          138.7
     0.883              -22.48          7.476          75.31          38.05         -5.047          4.369          133.6          30.49         -139.3          76.15          139.0
     0.905               -22.6          7.922          75.37          38.27         -5.014          4.101          131.1          30.37         -138.5          76.21          139.2
    0.9271              -22.76          8.483          75.45          38.54         -4.972          3.764          127.8          30.21         -137.5          76.28          139.6
    0.9492              -22.96          9.196          75.55           38.9          -4.92          3.334          123.7          30.01         -136.2          76.38          140.1
    0.9712              -23.21          10.11          75.68          39.35         -4.852          2.785          118.3          29.75         -134.5           76.5          140.6
    0.9933              -23.53          11.28          75.84          39.93         -4.766          2.079          111.5          29.42         -132.4          76.66          141.4
     1.015              -23.95          12.78          76.05          40.67         -4.656          1.178          102.8          28.99         -129.7          76.86          142.4
     1.037              -24.47          14.66          76.32           41.6         -4.517        0.04569          91.91          28.46         -126.3          77.11          143.6
      1.06              -25.11          16.95          76.64          42.74         -4.348         -1.335          78.58          27.82         -122.2          77.41          145.0
